<svg width="646" height="439" viewBox="0 0 646 439" fill="none" xmlns="http://www.w3.org/2000/svg">
<path d="M578.999 101C619.999 106.5 673.999 52.4999 603.999 16.4999M603.999 16.4999C533.999 -19.5001 337.5 81.4999 209.5 150C209.5 150 88.5 198.5 35.5 153C6.90095 128.448 -5.99999 83 30.5 54.5C63 37 75.3055 47.7454 101.5 137C128.5 229 190 428 190 428L349.5 35.4999M603.999 16.4999C541.5 -3.00004 519.5 17.5 479.5 117.5C479.5 117.5 377.167 369.333 346 430.5C301.833 295.167 219 25.5 195 35.4999C219.5 25.2917 264.5 282 361 313C361 313 417 333 463.5 319C463.5 319 527.5 301.5 552.5 242.397C552.5 242.397 571 184.5 513.5 178" stroke="black" stroke-width="25" stroke-linecap="round" stroke-linejoin="round"/>
</svg>
